<svg width="9" height="5" viewBox="0 0 9 5" fill="none" xmlns="http://www.w3.org/2000/svg">
<path d="M2.31936 4H1.34936V1.7L1.04436 1.95L0.514355 1.23L1.50936 0.35H2.31936V4ZM2.66385 2.17C2.66385 1.82667 2.70885 1.51333 2.79885 1.23C2.89218 0.943333 3.04218 0.713333 3.24885 0.54C3.45551 0.363333 3.72218 0.275 4.04885 0.275C4.36885 0.275 4.63385 0.363333 4.84385 0.54C5.05718 0.716666 5.21218 0.948333 5.30885 1.235C5.40885 1.52167 5.45885 1.83333 5.45885 2.17C5.45885 2.49667 5.40718 2.805 5.30385 3.095C5.20385 3.385 5.04718 3.62167 4.83385 3.805C4.62385 3.985 4.36218 4.075 4.04885 4.075C3.73551 4.075 3.47551 3.98333 3.26885 3.8C3.06218 3.61333 2.90885 3.375 2.80885 3.085C2.71218 2.795 2.66385 2.49 2.66385 2.17ZM3.63385 2.175C3.63385 2.39167 3.65385 2.575 3.69385 2.725C3.73718 2.875 3.79218 2.98667 3.85885 3.06C3.92551 3.13333 3.99551 3.17 4.06885 3.17C4.18885 3.17 4.28885 3.08667 4.36885 2.92C4.44885 2.75 4.48885 2.50167 4.48885 2.175C4.48885 1.84833 4.44718 1.60167 4.36385 1.435C4.28385 1.265 4.18551 1.18 4.06885 1.18C3.99218 1.18 3.92051 1.21667 3.85385 1.29C3.79051 1.36 3.73718 1.47 3.69385 1.62C3.65385 1.77 3.63385 1.955 3.63385 2.175ZM5.64725 2.17C5.64725 1.82667 5.69225 1.51333 5.78225 1.23C5.87558 0.943333 6.02558 0.713333 6.23225 0.54C6.43891 0.363333 6.70558 0.275 7.03225 0.275C7.35225 0.275 7.61725 0.363333 7.82725 0.54C8.04058 0.716666 8.19558 0.948333 8.29225 1.235C8.39225 1.52167 8.44225 1.83333 8.44225 2.17C8.44225 2.49667 8.39058 2.805 8.28725 3.095C8.18725 3.385 8.03058 3.62167 7.81725 3.805C7.60725 3.985 7.34558 4.075 7.03225 4.075C6.71891 4.075 6.45891 3.98333 6.25225 3.8C6.04558 3.61333 5.89225 3.375 5.79225 3.085C5.69558 2.795 5.64725 2.49 5.64725 2.17ZM6.61725 2.175C6.61725 2.39167 6.63725 2.575 6.67725 2.725C6.72058 2.875 6.77558 2.98667 6.84225 3.06C6.90891 3.13333 6.97891 3.17 7.05225 3.17C7.17225 3.17 7.27225 3.08667 7.35225 2.92C7.43225 2.75 7.47225 2.50167 7.47225 2.175C7.47225 1.84833 7.43058 1.60167 7.34725 1.435C7.26725 1.265 7.16891 1.18 7.05225 1.18C6.97558 1.18 6.90391 1.21667 6.83725 1.29C6.77391 1.36 6.72058 1.47 6.67725 1.62C6.63725 1.77 6.61725 1.955 6.61725 2.175Z" fill="#DC3E3E"/>
</svg>
