<svg width="28" height="50" viewBox="0 0 28 50" fill="none" xmlns="http://www.w3.org/2000/svg">
<path d="M9.88725 34.304C9.84458 31.9573 9.97258 30.016 10.2713 28.48C10.5699 26.944 11.3166 25.2587 12.5113 23.424L13.7273 21.632C14.7513 20.224 15.5406 18.9867 16.0953 17.92C16.6926 16.8533 16.9913 15.8293 16.9913 14.848C16.9913 13.6107 16.5646 12.5867 15.7113 11.776C14.9006 10.9227 13.8766 10.496 12.6393 10.496C11.7859 10.496 11.0179 10.7307 10.3353 11.2C9.65258 11.6693 9.11925 12.2667 8.73525 12.992L7.96725 14.72L0.67125 11.968C1.01258 9.83466 1.82325 7.91466 3.10325 6.208C4.38325 4.45867 5.98325 3.09333 7.90325 2.112C9.86592 1.088 11.9566 0.575996 14.1753 0.575996C16.6499 0.575996 18.8899 1.152 20.8953 2.304C22.9006 3.456 24.4793 5.03466 25.6313 7.04C26.7833 9.04533 27.3593 11.2853 27.3593 13.76C27.3593 15.5093 26.9753 17.2587 26.2073 19.008C25.4393 20.7573 24.1379 22.6987 22.3033 24.832C21.0659 26.2827 20.0206 27.8613 19.1673 29.568C18.3566 31.2747 17.9299 32.8533 17.8873 34.304H9.88725ZM13.8553 49.28C12.2766 49.28 10.8686 48.6613 9.63125 47.424C8.39392 46.144 7.77525 44.6933 7.77525 43.072C7.77525 41.3653 8.35125 39.9147 9.50325 38.72C10.6979 37.4827 12.1486 36.864 13.8553 36.864C15.7326 36.864 17.2259 37.4827 18.3353 38.72C19.4873 39.9147 20.0633 41.3653 20.0633 43.072C20.0633 44.864 19.4446 46.3573 18.2073 47.552C16.9699 48.704 15.5193 49.28 13.8553 49.28Z" fill="#DC3E3E"/>
</svg>
