<svg width="48" height="51" viewBox="0 0 48 51" fill="none" xmlns="http://www.w3.org/2000/svg">
<path d="M24.2652 50.3503V43.0708L38.2177 32.1514L47.3172 33.0614L38.8243 43.6774L24.2652 50.3503Z" fill="#AD1919"/>
<path d="M24.2652 50.3503V43.0708L9.70605 32.1514L0.606594 33.0614L9.09942 43.6774L24.2652 50.3503Z" fill="#C43636"/>
<path d="M32.7581 15.7724H14.8625L8.79615 6.97625L23.6586 0L38.521 6.97625L32.7581 15.7724Z" fill="#EB4141"/>
<path d="M14.8624 15.7723L32.758 15.7723L38.2177 32.1514L24.2652 43.0708L10.0094 32.4547L14.8624 15.7723Z" fill="#DC3E3E"/>
<path d="M32.7581 15.7724L38.521 6.97627L47.6205 16.0757L47.3172 33.0614L38.2177 32.1514L32.7581 15.7724Z" fill="#D82626"/>
<path d="M14.8624 15.7724L8.87048 7.00301L-1.48494e-06 16.0757L0.606592 33.0614L10.0094 32.4548L14.8624 15.7724Z" fill="#DC3E3E"/>
</svg>
