<svg width="45" height="50" viewBox="0 0 45 50" fill="none" xmlns="http://www.w3.org/2000/svg">
<path d="M22.2334 42.8199V49.4076L44.4668 38.085L22.2334 42.8199Z" fill="#C33636"/>
<path d="M22.2334 43.0258V49.4076L0.411734 38.085L22.2334 43.0258Z" fill="#DC3E3E"/>
<path d="M22.2334 43.0258L8.85219 19.5572H36.2322L22.2334 43.0258Z" fill="#DC3E3E"/>
<path d="M22.851 0.0103264L8.64632 19.5572H36.2322L22.851 0.0103264Z" fill="#C33636"/>
<path d="M22.851 1.52588e-05L36.2322 19.5572L44.8785 11.7343L22.851 1.52588e-05Z" fill="#D82626"/>
<path d="M22.851 1.52588e-05L8.8522 19.5572L7.62939e-06 11.9402L22.851 1.52588e-05Z" fill="#BB2222"/>
<path d="M0.41173 38.085L8.85219 19.5572L0 11.9402L0.41173 38.085Z" fill="#BE4747"/>
<path d="M44.4668 38.085L36.2322 19.5572L44.8785 11.7343L44.4668 38.085Z" fill="#C33636"/>
<path d="M22.0718 42.8641L44.4668 38.085L36.2322 19.5744L22.0718 42.8641Z" fill="#D82626"/>
<path d="M22.2334 43.0258L0.411734 38.085L8.85219 19.5572L22.2334 43.0258Z" fill="#C33636"/>
</svg>
